<?xml version="1.0" encoding="UTF-8"?>
<svg xmlns="http://www.w3.org/2000/svg" version="1.1" xmlns:xlink="http://www.w3.org/1999/xlink" viewBox="0 0 800 1200">
  <defs>
    <clipPath id="clippath">
      <rect width="800" height="1200" style="fill: none;"/>
    </clipPath>
    <linearGradient id="linear-gradient" x1="925.068" y1="1449.972" x2="-103.996" y2="-215.86" gradientUnits="userSpaceOnUse">
      <stop offset=".027" stop-color="#79c9bc"/>
      <stop offset=".049" stop-color="#86cec2"/>
      <stop offset=".111" stop-color="#a6dbd2"/>
      <stop offset=".18" stop-color="#c2e6e0"/>
      <stop offset=".259" stop-color="#d8efeb"/>
      <stop offset=".35" stop-color="#e9f6f4"/>
      <stop offset=".46" stop-color="#f6fbfa"/>
      <stop offset=".612" stop-color="#fdfefe"/>
      <stop offset="1" stop-color="#fff"/>
    </linearGradient>
    <filter id="drop-shadow-1" x="103.4" y="603.72" width="213.84" height="313.68" filterUnits="userSpaceOnUse">
      <feOffset dx="7" dy="7"/>
      <feGaussianBlur result="blur" stdDeviation="3"/>
      <feFlood flood-color="#000" flood-opacity=".15"/>
      <feComposite in2="blur" operator="in"/>
      <feComposite in="SourceGraphic"/>
    </filter>
    <filter id="drop-shadow-2" x="65" y="270.84" width="211.2" height="192.72" filterUnits="userSpaceOnUse">
      <feOffset dx="7" dy="7"/>
      <feGaussianBlur result="blur-2" stdDeviation="3"/>
      <feFlood flood-color="#000" flood-opacity=".15"/>
      <feComposite in2="blur-2" operator="in"/>
      <feComposite in="SourceGraphic"/>
    </filter>
    <filter id="drop-shadow-3" x="-60.52" y="859.56" width="211.2" height="192.72" filterUnits="userSpaceOnUse">
      <feOffset dx="7" dy="7"/>
      <feGaussianBlur result="blur-3" stdDeviation="3"/>
      <feFlood flood-color="#000" flood-opacity=".15"/>
      <feComposite in2="blur-3" operator="in"/>
      <feComposite in="SourceGraphic"/>
    </filter>
    <filter id="drop-shadow-4" x="-90.76" y="109.08" width="224.4" height="224.4" filterUnits="userSpaceOnUse">
      <feOffset dx="7" dy="7"/>
      <feGaussianBlur result="blur-4" stdDeviation="3"/>
      <feFlood flood-color="#000" flood-opacity=".15"/>
      <feComposite in2="blur-4" operator="in"/>
      <feComposite in="SourceGraphic"/>
    </filter>
    <filter id="drop-shadow-5" x="-90.76" y="1118.04" width="224.4" height="224.16" filterUnits="userSpaceOnUse">
      <feOffset dx="7" dy="7"/>
      <feGaussianBlur result="blur-5" stdDeviation="3"/>
      <feFlood flood-color="#000" flood-opacity=".15"/>
      <feComposite in2="blur-5" operator="in"/>
      <feComposite in="SourceGraphic"/>
    </filter>
    <filter id="drop-shadow-6" x="-105.16" y="632.04" width="224.4" height="224.4" filterUnits="userSpaceOnUse">
      <feOffset dx="7" dy="7"/>
      <feGaussianBlur result="blur-6" stdDeviation="3"/>
      <feFlood flood-color="#000" flood-opacity=".15"/>
      <feComposite in2="blur-6" operator="in"/>
      <feComposite in="SourceGraphic"/>
    </filter>
    <filter id="drop-shadow-7" x="59.24" y="-94.2" width="258" height="362.88" filterUnits="userSpaceOnUse">
      <feOffset dx="7" dy="7"/>
      <feGaussianBlur result="blur-7" stdDeviation="3"/>
      <feFlood flood-color="#000" flood-opacity=".15"/>
      <feComposite in2="blur-7" operator="in"/>
      <feComposite in="SourceGraphic"/>
    </filter>
    <filter id="drop-shadow-8" x="-47.8" y="437.4" width="190.56" height="173.04" filterUnits="userSpaceOnUse">
      <feOffset dx="7" dy="7"/>
      <feGaussianBlur result="blur-8" stdDeviation="3"/>
      <feFlood flood-color="#000" flood-opacity=".15"/>
      <feComposite in2="blur-8" operator="in"/>
      <feComposite in="SourceGraphic"/>
    </filter>
    <filter id="drop-shadow-9" x="126.68" y="983.64" width="190.56" height="173.04" filterUnits="userSpaceOnUse">
      <feOffset dx="7" dy="7"/>
      <feGaussianBlur result="blur-9" stdDeviation="3"/>
      <feFlood flood-color="#000" flood-opacity=".15"/>
      <feComposite in2="blur-9" operator="in"/>
      <feComposite in="SourceGraphic"/>
    </filter>
    <filter id="drop-shadow-10" x="78.92" y="65.88" width="660" height="1086.24" filterUnits="userSpaceOnUse">
      <feOffset dx="9" dy="9"/>
      <feGaussianBlur result="blur-10" stdDeviation="7"/>
      <feFlood flood-color="#000" flood-opacity=".15"/>
      <feComposite in2="blur-10" operator="in"/>
      <feComposite in="SourceGraphic"/>
    </filter>
    <filter id="drop-shadow-11" x="106.52" y="88.68" width="605.04" height="1040.64" filterUnits="userSpaceOnUse">
      <feOffset dx="9" dy="9"/>
      <feGaussianBlur result="blur-11" stdDeviation="7"/>
      <feFlood flood-color="#000" flood-opacity=".2"/>
      <feComposite in2="blur-11" operator="in"/>
      <feComposite in="SourceGraphic"/>
    </filter>
  </defs>
  <!-- Generator: Adobe Illustrator 28.7.7, SVG Export Plug-In . SVG Version: 1.2.0 Build 194)  -->
  <g style="isolation: isolate;">
    <g id="Background">
      <g style="clip-path: url(#clippath);">
        <g>
          <rect x="-6.667" y="-10" width="813.333" height="1220" style="fill: #e1efec;"/>
          <rect x="-6.667" y="-10" width="813.333" height="1220" style="fill: url(#linear-gradient); mix-blend-mode: multiply; opacity: .4;"/>
        </g>
        <g style="filter: url(#drop-shadow-1); opacity: .7;">
          <path d="M116.005,834.944c-6.558-6.558-10.238-15.204-10.365-24.348-.127-9.142,3.319-17.693,9.703-24.078l24.303-24.303,4.875,4.875-24.303,24.303c-5.119,5.119-7.88,11.972-7.779,19.297.102,7.327,3.052,14.257,8.308,19.513,10.851,10.852,28.266,11.093,38.821.539l6.877-6.877c6.386-6.386,14.937-9.832,24.078-9.703,9.157.138,17.805,3.822,24.358,10.375,13.539,13.539,13.84,35.266.671,48.435l-28.388,28.388-4.875-4.875,28.388-28.388c10.554-10.554,10.313-27.969-.538-38.819-5.253-5.253-12.188-8.206-19.527-8.317-7.321-.103-14.173,2.66-19.293,7.78l-6.877,6.877c-13.169,13.169-34.897,12.868-48.437-.672Z" style="fill: #fff;"/>
          <path d="M296.69,688.416l-79.499,79.499c-21.054,21.054-55.661,20.573-77.307-1.073-21.634-21.634-22.114-56.241-1.061-77.295l79.499-79.499c5.865-5.865,15.528-5.731,21.571.312l56.485,56.485c6.042,6.042,6.177,15.706.311,21.571Z" style="fill: #79c9bc;"/>
          <path d="M296.69,688.416l-36.642,36.642-78.368-78.368,36.642-36.642c5.865-5.865,15.528-5.731,21.571.312l56.485,56.485c6.042,6.042,6.177,15.706.311,21.571Z" style="fill: #bde5de;"/>
          <path d="M296.384,666.843l-56.491-56.491c-6.04-6.04-15.701-6.175-21.576-.299l-79.495,79.495c-21.048,21.048-20.567,55.653,1.073,77.294h0c21.64,21.641,56.246,22.121,77.294,1.073l79.495-79.495c5.875-5.875,5.742-15.535-.3-21.576ZM212.314,763.039c-18.4,18.4-48.76,17.979-67.678-.939-18.918-18.918-19.339-49.278-.94-67.678l79.495-79.495c3.252-3.252,8.617-3.177,11.96.166l56.491,56.491c3.343,3.343,3.418,8.709.166,11.96l-79.495,79.495Z" style="fill: #fff;"/>
          <polygon points="249.72 700.493 235.3 686.073 249.325 672.048 234.689 657.412 220.663 671.437 206.243 657.017 192.008 671.252 206.428 685.672 192.403 699.697 207.039 714.333 221.064 700.308 235.484 714.728 249.72 700.493" style="fill: #fff;"/>
        </g>
        <g style="filter: url(#drop-shadow-2); opacity: .7;">
          <g>
            <path d="M256.739,344.181c-.945,2.529-2.942,7.242-6.696,13.737-.958,1.651-2.023,3.434-3.221,5.311-8.493,13.325-23.308,32.147-48.614,54.152l-34.65,30.124-34.637-30.124c-23.096-20.074-37.446-37.499-46.218-50.517-1.265-1.877-2.409-3.647-3.448-5.325-5.178-8.386-7.747-14.376-8.865-17.358-10.183-27.315,3.714-57.719,31.029-67.902,23.282-8.666,48.8.133,62.139,19.834,13.338-19.701,38.87-28.5,62.138-19.834,27.329,10.183,41.226,40.587,31.043,67.902Z" style="fill: #79c9bc;"/>
            <path d="M251.753,342.318c-.799,2.117-2.662,6.616-6.31,12.926-1.132,1.93-2.117,3.554-3.115,5.125-7.561,11.861-21.951,30.683-47.616,52.993l-31.149,27.089-31.149-27.089c-19.156-16.639-34.397-33.292-45.3-49.479-1.198-1.771-2.316-3.501-3.328-5.138-4.978-8.067-7.414-13.764-8.413-16.426-9.132-24.52,3.381-51.902,27.901-61.047,5.351-1.997,10.915-2.995,16.56-2.995,15.788,0,30.484,7.774,39.309,20.819l4.419,6.509,4.406-6.509c8.826-13.032,23.522-20.819,39.309-20.819,5.644,0,11.222.998,16.56,2.995,11.887,4.419,21.325,13.218,26.61,24.746,5.271,11.528,5.724,24.427,1.305,36.301Z" style="fill: none;"/>
          </g>
          <path d="M225.702,276.279c-6.07-2.263-12.3-3.328-18.423-3.328-8.679,0-17.145,2.143-24.666,6.123-7.535,3.967-14.124,9.758-19.049,17.039-9.864-14.563-26.37-23.162-43.729-23.162-6.11,0-12.34,1.065-18.41,3.328-27.315,10.183-41.213,40.587-31.029,67.903,1.118,2.982,3.687,8.972,8.865,17.358h-.005c1.038,1.677,2.183,3.448,3.448,5.325h.006s0,0,0,0c8.772,13.019,23.122,30.444,46.218,50.517l34.637,30.124,34.65-30.124c25.305-22.004,40.121-40.827,48.614-54.152,1.198-1.877,2.263-3.661,3.221-5.311,3.754-6.496,5.751-11.208,6.696-13.737,10.183-27.315-3.714-57.719-31.043-67.903ZM194.713,413.361l-31.149,27.089-31.149-27.089c-17.982-15.62-32.513-31.251-43.245-46.498h78.276l9.185-35.329,12.406,76.981,15.162-61.952,7.295,36.035,7.588-19.448,21.385.062c-7.97,11.918-22.043,29.539-45.753,50.15ZM251.753,342.318c-.799,2.117-2.662,6.616-6.31,12.926-.557.95-1.078,1.824-1.583,2.656l-28.401-.087-2.342,5.977-8.44-41.612-14.563,59.543-12.273-76.076-14.51,55.895h-77.767c-.62-.953-1.217-1.89-1.777-2.795-4.978-8.067-7.414-13.764-8.413-16.426-9.132-24.52,3.381-51.902,27.901-61.047,5.351-1.997,10.915-2.995,16.56-2.995,15.788,0,30.484,7.774,39.309,20.819l4.419,6.509,4.406-6.509c8.826-13.032,23.522-20.819,39.309-20.819,5.644,0,11.222.998,16.56,2.995,11.887,4.419,21.325,13.218,26.61,24.746,5.271,11.528,5.724,24.427,1.305,36.301Z" style="fill: #fff;"/>
        </g>
        <g style="filter: url(#drop-shadow-3); opacity: .7;">
          <g>
            <path d="M131.254,932.939c-.945,2.529-2.942,7.242-6.696,13.737-.958,1.651-2.023,3.434-3.221,5.311-8.493,13.325-23.308,32.147-48.614,54.151l-34.65,30.124-34.637-30.124c-23.096-20.074-37.446-37.499-46.218-50.517-1.265-1.877-2.409-3.647-3.448-5.325-5.178-8.386-7.747-14.377-8.865-17.358-10.183-27.315,3.714-57.719,31.029-67.902,23.282-8.666,48.8.133,62.139,19.834,13.338-19.701,38.87-28.5,62.138-19.834,27.329,10.183,41.226,40.587,31.043,67.902Z" style="fill: #79c9bc;"/>
            <path d="M126.268,931.075c-.799,2.117-2.662,6.616-6.31,12.926-1.132,1.93-2.117,3.554-3.115,5.125-7.561,11.861-21.951,30.683-47.616,52.994l-31.149,27.089-31.149-27.089c-19.156-16.64-34.397-33.292-45.3-49.479-1.198-1.77-2.316-3.501-3.328-5.138-4.978-8.067-7.414-13.764-8.413-16.427-9.132-24.52,3.381-51.902,27.901-61.047,5.351-1.997,10.915-2.995,16.559-2.995,15.788,0,30.484,7.774,39.309,20.819l4.42,6.509,4.406-6.509c8.825-13.032,23.521-20.819,39.309-20.819,5.644,0,11.222.998,16.56,2.995,11.887,4.419,21.325,13.218,26.61,24.746,5.271,11.528,5.724,24.427,1.305,36.301Z" style="fill: none;"/>
          </g>
          <path d="M100.218,865.037c-6.07-2.263-12.3-3.328-18.423-3.328-8.679,0-17.145,2.143-24.666,6.123-7.535,3.967-14.124,9.757-19.049,17.039-9.864-14.563-26.37-23.162-43.729-23.162-6.11,0-12.34,1.065-18.41,3.328-27.315,10.183-41.213,40.587-31.029,67.902,1.118,2.982,3.687,8.972,8.865,17.358h-.005c1.038,1.677,2.183,3.448,3.447,5.325h.006s0,0,0,0c8.772,13.019,23.122,30.444,46.218,50.517l34.637,30.124,34.65-30.124c25.305-22.004,40.121-40.827,48.614-54.151,1.198-1.877,2.263-3.661,3.221-5.311,3.754-6.496,5.751-11.209,6.696-13.738,10.183-27.315-3.714-57.719-31.043-67.902ZM69.228,1002.12l-31.149,27.089-31.149-27.089c-17.982-15.62-32.513-31.251-43.245-46.498H41.96l9.185-35.329,12.406,76.981,15.162-61.952,7.295,36.034,7.588-19.448,21.385.062c-7.97,11.918-22.043,29.539-45.753,50.15ZM126.268,931.075c-.799,2.117-2.662,6.616-6.31,12.926-.557.95-1.078,1.824-1.583,2.656l-28.401-.087-2.343,5.977-8.44-41.612-14.563,59.543-12.273-76.076-14.51,55.895H-39.921c-.62-.953-1.217-1.89-1.777-2.795-4.978-8.067-7.414-13.764-8.413-16.427-9.132-24.52,3.381-51.902,27.901-61.047,5.351-1.997,10.915-2.995,16.559-2.995,15.788,0,30.484,7.774,39.309,20.819l4.42,6.509,4.406-6.509c8.825-13.032,23.521-20.819,39.309-20.819,5.644,0,11.222.998,16.56,2.995,11.887,4.419,21.325,13.218,26.61,24.746,5.271,11.528,5.724,24.427,1.305,36.301Z" style="fill: #fff;"/>
        </g>
        <g style="filter: url(#drop-shadow-4); opacity: .7;">
          <rect x="-20.015" y="142.226" width="59.417" height="153.407" rx="11.582" ry="11.582" transform="translate(157.646 57.269) rotate(45)" style="fill: #bde5de;"/>
          <rect x="62.074" y="130.29" width="59.417" height="13.1" transform="translate(59.921 298.501) rotate(-135)" style="fill: #bde5de;"/>
          <polygon points="75.338 176.099 77.435 166.617 94.865 149.187 79.436 133.758 62.006 151.188 52.523 153.284 75.338 176.099" style="fill: #79c9bc;"/>
          <path d="M30.708,239.936l-46.052,46.052c-4.521,4.521-11.859,4.521-16.38,0l-25.634-25.634c-4.529-4.529-4.521-11.859,0-16.38l46.052-46.052,42.014,42.014Z" style="fill: #79c9bc;"/>
          <path d="M76.748,177.509l-25.634-25.634c-2.261-2.262-5.226-3.392-8.19-3.392s-5.928,1.131-8.19,3.392l-92.096,92.095c-4.523,4.523-4.523,11.857,0,16.38l10.835,10.835-41.281,41.281c-1.095,1.095-1.095,2.869,0,3.964.547.548,1.265.821,1.982.821s1.434-.274,1.982-.821l41.281-41.281,10.835,10.835c2.261,2.262,5.226,3.392,8.19,3.392s5.928-1.131,8.19-3.392l14.3-14.3h0s3.964-3.963,3.964-3.963h0s73.832-73.832,73.832-73.832c4.523-4.523,4.523-11.857,0-16.38ZM72.783,189.924l-4.911,4.911-17.039-17.039-3.964,3.964,17.039,17.039-6.303,6.304-6.538-6.537-3.964,3.964,6.538,6.537-5.344,5.344-17.039-17.039-3.964,3.964,17.039,17.039-6.279,6.279-6.538-6.537-3.964,3.964,6.538,6.537-5.367,5.367-17.039-17.039-3.964,3.964,17.039,17.039-6.256,6.256-6.538-6.537-3.964,3.964,6.538,6.537-6.254,6.254-17.039-17.039-3.964,3.964,17.039,17.039-5.369,5.368-6.536-6.537-3.964,3.964,6.536,6.537-5.415,5.416-17.039-17.039-3.964,3.964,17.039,17.039-4.92,4.919c-1.129,1.129-2.629,1.75-4.226,1.75s-3.096-.621-4.226-1.75l-25.634-25.634c-2.33-2.33-2.33-6.121,0-8.451l92.095-92.095c1.129-1.129,2.63-1.75,4.226-1.75s3.096.622,4.225,1.75l25.634,25.634c1.129,1.129,1.75,2.629,1.75,4.226s-.621,3.097-1.75,4.225Z" style="fill: #fff;"/>
        </g>
        <g style="filter: url(#drop-shadow-5); opacity: .7;">
          <rect x="-20.015" y="1151.081" width="59.417" height="153.407" rx="11.582" ry="11.582" transform="translate(871.014 352.756) rotate(45)" style="fill: #bde5de;"/>
          <rect x="62.074" y="1139.146" width="59.417" height="13.1" transform="translate(-653.447 2020.725) rotate(-135)" style="fill: #bde5de;"/>
          <polygon points="75.338 1184.954 77.435 1175.472 94.865 1158.042 79.436 1142.613 62.006 1160.043 52.523 1162.14 75.338 1184.954" style="fill: #79c9bc;"/>
          <path d="M30.708,1248.791l-46.052,46.052c-4.521,4.521-11.859,4.521-16.38,0l-25.634-25.634c-4.529-4.529-4.521-11.859,0-16.38l46.052-46.052,42.014,42.014Z" style="fill: #79c9bc;"/>
          <path d="M76.748,1186.364l-25.634-25.634c-2.261-2.262-5.226-3.392-8.19-3.392s-5.928,1.131-8.19,3.392l-92.096,92.095c-4.523,4.523-4.523,11.857,0,16.38l10.835,10.835-41.281,41.281c-1.095,1.095-1.095,2.869,0,3.964.547.547,1.265.821,1.982.821s1.434-.274,1.982-.821l41.281-41.281,10.835,10.835c2.261,2.262,5.226,3.392,8.19,3.392s5.928-1.131,8.19-3.392l14.3-14.3h0s3.964-3.963,3.964-3.963h0s73.832-73.832,73.832-73.832c4.523-4.523,4.523-11.857,0-16.38ZM72.783,1198.779l-4.911,4.911-17.039-17.039-3.964,3.964,17.039,17.039-6.303,6.304-6.538-6.537-3.964,3.964,6.538,6.537-5.344,5.344-17.039-17.039-3.964,3.964,17.039,17.039-6.279,6.279-6.538-6.537-3.964,3.964,6.538,6.537-5.367,5.367-17.039-17.039-3.964,3.964,17.039,17.039-6.256,6.256-6.538-6.537-3.964,3.964,6.538,6.537-6.254,6.254-17.039-17.039-3.964,3.964,17.039,17.039-5.369,5.368-6.536-6.537-3.964,3.964,6.536,6.537-5.415,5.416-17.039-17.039-3.964,3.964,17.039,17.039-4.92,4.919c-1.129,1.129-2.629,1.75-4.226,1.75s-3.096-.621-4.226-1.75l-25.634-25.634c-2.33-2.33-2.33-6.121,0-8.451l92.095-92.095c1.129-1.129,2.63-1.75,4.226-1.75s3.096.622,4.225,1.75l25.634,25.634c1.129,1.129,1.75,2.629,1.75,4.225s-.621,3.097-1.75,4.225Z" style="fill: #fff;"/>
        </g>
        <g style="filter: url(#drop-shadow-6); opacity: .7;">
          <path d="M-62.275,773.959l25.634,25.634c4.523,4.523,11.857,4.523,16.38,0l92.095-92.095c4.523-4.523,4.523-11.857,0-16.38l-25.634-25.634c-4.523-4.523-11.857-4.523-16.38,0l-92.095,92.095c-4.523,4.523-4.523,11.857,0,16.38Z" style="fill: #bde5de;"/>
          <rect x="-107.018" y="808.077" width="59.417" height="13.1" transform="translate(553.385 293.265) rotate(45)" style="fill: #bde5de;"/>
          <polygon points="-60.865 775.369 -62.962 784.851 -80.392 802.281 -64.963 817.71 -47.533 800.28 -38.05 798.183 -60.865 775.369" style="fill: #79c9bc;"/>
          <path d="M-16.235,711.532l46.052-46.052c4.521-4.521,11.859-4.521,16.38,0l25.634,25.634c4.529,4.529,4.521,11.859,0,16.38l-46.052,46.052-42.014-42.014Z" style="fill: #79c9bc;"/>
          <path d="M-62.275,773.959l25.634,25.634c2.261,2.262,5.226,3.392,8.19,3.392s5.928-1.131,8.19-3.392l92.096-92.095c4.523-4.523,4.523-11.857,0-16.38l-10.835-10.835,41.281-41.281c1.095-1.095,1.095-2.869,0-3.964-.548-.548-1.265-.821-1.982-.821s-1.435.274-1.982.821l-41.281,41.281-10.835-10.835c-2.261-2.262-5.226-3.392-8.19-3.392s-5.928,1.131-8.19,3.392l-14.3,14.299h0s-3.964,3.964-3.964,3.964h0s-73.832,73.832-73.832,73.832c-4.523,4.523-4.523,11.857,0,16.38ZM-58.311,761.544l4.911-4.911,17.039,17.039,3.964-3.964-17.039-17.039,6.303-6.304,6.538,6.537,3.964-3.964-6.538-6.537,5.344-5.344,17.039,17.039,3.964-3.964-17.039-17.039,6.279-6.279,6.538,6.537,3.964-3.964-6.538-6.537,5.367-5.367,17.039,17.039,3.964-3.964-17.039-17.039,6.256-6.256,6.538,6.537,3.964-3.964-6.538-6.537,6.254-6.254,17.039,17.039,3.964-3.964-17.039-17.039,5.369-5.368,6.536,6.536,3.964-3.964-6.536-6.537,5.415-5.416,17.039,17.039,3.964-3.964-17.039-17.039,4.92-4.919c1.129-1.129,2.63-1.75,4.226-1.75s3.096.622,4.226,1.75l25.634,25.634c2.33,2.33,2.33,6.121,0,8.451l-92.095,92.095c-1.129,1.129-2.629,1.75-4.226,1.75s-3.096-.622-4.225-1.75l-25.634-25.634c-1.129-1.129-1.75-2.629-1.75-4.226s.621-3.097,1.75-4.225Z" style="fill: #fff;"/>
        </g>
        <g style="filter: url(#drop-shadow-7); opacity: .7;">
          <path d="M133.069,62.409c30.118,15.514,68.588,29.349,90.336,7.602,21.757-21.757,7.912-60.218-7.602-90.336l-7.415,13.62s13.405,28.328-9.983,51.715c-23.388,23.388-51.715,9.983-51.715,9.983l-13.62,7.415Z" style="fill: #79c9bc;"/>
          <path d="M225.804,72.403c31.077-31.077-4.315-91.084-21.324-119.923-9.034-15.318-27.487-41.436-49.574-44.238-9.941-1.263-19.284,2.4-27.77,10.886t-.002.002l4.789,4.789.002-.002c7.025-7.025,14.262-9.955,22.127-8.956,19.938,2.53,37.828,29.487,44.594,40.96,14.883,25.233,49.735,84.326,22.368,111.693-27.368,27.369-86.461-7.484-111.694-22.366-11.473-6.766-38.429-24.656-40.96-44.594-.999-7.865,1.932-15.104,8.958-22.13l-4.789-4.789c-8.487,8.486-12.15,17.829-10.888,27.772,1.203,9.481,8.55,28.528,44.238,49.574,28.839,17.008,88.846,52.401,119.925,21.322Z" style="fill: #fff;"/>
          <path d="M122.499-85.506l-16.973,16.973c-3.882,3.882-3.882,10.177,0,14.059h0c3.882,3.882,10.177,3.882,14.059,0l16.973-16.973-14.059-14.059Z" style="fill: #79c9bc;"/>
          <path d="M67.894-30.901l16.973-16.973c3.882-3.882,10.177-3.882,14.059,0h0c3.882,3.882,3.882,10.177,0,14.059l-16.973,16.973-14.059-14.059Z" style="fill: #79c9bc;"/>
          <path d="M291.191,180.373c6.329-6.329,9.814-14.74,9.813-23.683,0-8.944-3.488-17.357-9.822-23.692l-65.382-65.382-4.789,4.789,65.382,65.382c5.055,5.055,7.839,11.768,7.839,18.903s-2.782,13.845-7.83,18.894c-10.424,10.424-27.383,10.423-37.806,0l-48.125-48.126c-6.334-6.334-14.748-9.823-23.692-9.822-8.956.01-17.368,3.498-23.691,9.822-13.064,13.064-13.065,34.32,0,47.384l57.73,57.73,4.789-4.789-57.73-57.729c-10.423-10.423-10.423-27.382,0-37.806,5.046-5.047,11.76-7.829,18.907-7.839,7.13,0,13.843,2.784,18.898,7.839l48.125,48.126c13.064,13.064,34.32,13.063,47.384,0Z" style="fill: #fff;"/>
          <circle cx="213.211" cy="230.178" r="22.336" style="fill: #79c9bc;"/>
          <path d="M221.141,222.248c-4.379-4.379-11.48-4.379-15.859,0-4.379,4.379-4.379,11.48,0,15.859,4.379,4.379,11.48,4.379,15.859,0s4.379-11.48,0-15.859Z" style="fill: #bde5de;"/>
        </g>
        <g style="filter: url(#drop-shadow-8); opacity: .7;">
          <g>
            <path d="M99.194,497.448l-43.452,43.452-47.995-47.995,43.452-43.452c13.249-13.249,34.737-13.249,47.986,0,13.258,13.257,13.258,34.746.009,47.995Z" style="fill: #79c9bc;"/>
            <path d="M55.742,540.899l-43.443,43.443c-13.258,13.257-34.746,13.257-48.004,0-6.624-6.624-9.941-15.313-9.932-23.993,0-8.689,3.308-17.369,9.941-24.002l43.443-43.443,47.995,47.995Z" style="fill: #bde5de;"/>
            <path d="M7.747,492.905l-43.443,43.443c-6.633,6.633-9.941,15.313-9.941,24.002-.008,8.68,3.308,17.369,9.932,23.993s15.315,9.943,24.002,9.943,17.373-3.314,24.002-9.943l43.443-43.443-47.995-47.995ZM8.844,580.888c-5.489,5.489-12.786,8.512-20.547,8.512s-15.058-3.023-20.547-8.512c-5.49-5.49-8.509-12.782-8.501-20.539,0-7.762,3.022-15.059,8.51-20.547l39.989-39.988,41.085,41.085-39.988,39.989Z" style="fill: #fff;"/>
          </g>
          <g>
            <path d="M112.844,589.104c-12.019,8.023-28.414,6.729-39.021-3.878-10.612-10.612-11.906-27.007-3.878-39.026l42.899,42.904Z" style="fill: #bde5de;"/>
            <path d="M121.455,580.492l-42.9-42.904c12.019-8.028,28.414-6.729,39.021,3.878,10.607,10.607,11.902,27.007,3.878,39.026Z" style="fill: #bde5de;"/>
            <path d="M121.455,580.492c-.032.054-.068.109-.104.163-1.086,1.611-2.349,3.145-3.774,4.571s-2.955,2.683-4.566,3.77c-.054.036-.109.077-.167.109l-42.899-42.904c.032-.054.068-.109.104-.163,1.086-1.615,2.344-3.145,3.774-4.57,1.425-1.425,2.955-2.684,4.566-3.77.054-.036.109-.077.167-.109l42.9,42.904Z" style="fill: #79c9bc;"/>
            <g>
              <polygon points="95.705 532.407 95.705 532.407 95.705 532.407 95.705 532.407" style="fill: #fff;"/>
              <path d="M117.577,541.468c-6.041-6.041-13.956-9.061-21.871-9.061v4.886c6.956,0,13.496,2.71,18.417,7.63,8.815,8.815,10.151,22.69,3.171,33.001-.922,1.369-1.989,2.662-3.171,3.844-1.181,1.181-2.475,2.248-3.853,3.177-4.303,2.913-9.343,4.453-14.574,4.453-6.957,0-13.498-2.71-18.419-7.63-8.815-8.815-10.151-22.69-3.172-33.001.923-1.37,1.99-2.664,3.172-3.845,1.182-1.182,2.475-2.249,3.853-3.177,4.303-2.913,9.343-4.453,14.574-4.453l.002-4.886s-.001,0-.002,0c-6.05,0-12.101,1.765-17.313,5.293-1.611,1.085-3.144,2.344-4.569,3.768-1.424,1.425-2.683,2.959-3.768,4.569-8.145,12.032-6.89,28.527,3.768,39.186,6.042,6.042,13.957,9.061,21.873,9.061,6.05,0,12.101-1.765,17.313-5.293,1.61-1.085,3.144-2.344,4.569-3.768s2.683-2.958,3.768-4.569c8.145-12.032,6.89-28.527-3.768-39.186Z" style="fill: #fff;"/>
            </g>
          </g>
        </g>
        <g style="filter: url(#drop-shadow-9); opacity: .7;">
          <g>
            <path d="M156.173,1082.613l43.452-43.452,47.995,47.995-43.452,43.452c-13.249,13.249-34.737,13.249-47.986,0-13.257-13.258-13.258-34.746-.009-47.995Z" style="fill: #79c9bc;"/>
            <path d="M199.625,1039.162l43.443-43.443c13.257-13.258,34.746-13.258,48.004,0,6.624,6.624,9.941,15.313,9.932,23.993,0,8.689-3.308,17.369-9.941,24.002l-43.443,43.443-47.995-47.995Z" style="fill: #bde5de;"/>
            <path d="M247.62,1087.156l43.443-43.443c6.633-6.633,9.941-15.313,9.941-24.002.008-8.68-3.308-17.369-9.933-23.993-6.629-6.629-15.315-9.943-24.002-9.943s-17.373,3.314-24.002,9.943l-43.443,43.443,47.995,47.995ZM246.523,999.173c5.489-5.489,12.786-8.512,20.547-8.512s15.058,3.023,20.547,8.512c5.49,5.49,8.509,12.782,8.501,20.539,0,7.762-3.023,15.059-8.51,20.547l-39.989,39.988-41.085-41.085,39.988-39.989Z" style="fill: #fff;"/>
          </g>
          <g>
            <path d="M142.523,990.957c12.019-8.023,28.414-6.729,39.021,3.878,10.612,10.612,11.906,27.007,3.878,39.026l-42.899-42.904Z" style="fill: #bde5de;"/>
            <path d="M133.912,999.569l42.9,42.904c-12.019,8.028-28.414,6.729-39.021-3.878-10.607-10.607-11.901-27.007-3.878-39.026Z" style="fill: #bde5de;"/>
            <path d="M133.912,999.569c.032-.054.068-.109.104-.163,1.086-1.611,2.349-3.145,3.774-4.571,1.426-1.425,2.955-2.683,4.566-3.77.054-.036.109-.077.167-.109l42.899,42.904c-.032.054-.068.109-.104.163-1.086,1.616-2.344,3.145-3.774,4.571-1.425,1.425-2.955,2.683-4.566,3.77-.054.036-.109.077-.167.109l-42.9-42.904Z" style="fill: #79c9bc;"/>
            <g>
              <polygon points="159.661 1047.654 159.661 1047.654 159.661 1047.654 159.661 1047.654" style="fill: #fff;"/>
              <path d="M137.79,1038.593c6.041,6.041,13.956,9.061,21.871,9.061v-4.886c-6.956,0-13.496-2.71-18.417-7.63-8.815-8.815-10.151-22.69-3.171-33.001.922-1.369,1.989-2.662,3.171-3.844,1.181-1.181,2.475-2.248,3.853-3.177,4.303-2.913,9.343-4.453,14.574-4.453,6.957,0,13.498,2.71,18.419,7.63,8.815,8.815,10.151,22.69,3.172,33.001-.923,1.37-1.99,2.664-3.172,3.845-1.182,1.182-2.475,2.249-3.853,3.177-4.303,2.913-9.343,4.453-14.574,4.453l-.002,4.886h.002c6.05,0,12.101-1.765,17.313-5.293,1.611-1.085,3.144-2.344,4.569-3.768,1.425-1.425,2.683-2.958,3.768-4.569,8.145-12.032,6.89-28.527-3.768-39.186-6.042-6.042-13.957-9.061-21.873-9.061-6.05,0-12.101,1.765-17.313,5.293-1.61,1.085-3.144,2.344-4.569,3.768s-2.683,2.958-3.768,4.569c-8.145,12.032-6.89,28.527,3.768,39.186Z" style="fill: #fff;"/>
            </g>
          </g>
        </g>
      </g>
    </g>
    <g id="Graphic_Elements">
      <g>
        <rect x="91.111" y="78.118" width="617.779" height="1043.764" rx="40" ry="40" style="fill: #fff; filter: url(#drop-shadow-10);"/>
        <g style="filter: url(#drop-shadow-11);">
          <path d="M652.789,1099.283H147.211c-15.8,0-28.654-12.854-28.654-28.654V129.371c0-15.8,12.854-28.654,28.654-28.654h505.578c15.8,0,28.654,12.854,28.654,28.654v941.258c0,15.8-12.854,28.654-28.654,28.654ZM147.211,108.717c-11.389,0-20.654,9.266-20.654,20.654v941.258c0,11.389,9.266,20.654,20.654,20.654h505.578c11.389,0,20.654-9.266,20.654-20.654V129.371c0-11.389-9.266-20.654-20.654-20.654H147.211Z" style="fill: #79c9bc;"/>
        </g>
      </g>
    </g>
  </g>
</svg>